<?xml version="1.0" encoding="utf-8"?>
<!-- Generator: Adobe Illustrator 25.0.1, SVG Export Plug-In . SVG Version: 6.00 Build 0)  -->
<svg version="1.1" id="Camada_1" xmlns="http://www.w3.org/2000/svg" xmlns:xlink="http://www.w3.org/1999/xlink" x="0px" y="0px"
	 viewBox="0 0 128 160" style="enable-background:new 0 0 128 160;" xml:space="preserve">
<style type="text/css">
	.st0{opacity:0.29;fill:url(#SVGID_1_);}
</style>
<linearGradient id="SVGID_1_" gradientUnits="userSpaceOnUse" x1="64" y1="105.6496" x2="64" y2="30.5412">
	<stop  offset="0" style="stop-color:#F3F3F3"/>
	<stop  offset="9.293538e-02" style="stop-color:#ECECEC"/>
	<stop  offset="0.2237" style="stop-color:#DADADA"/>
	<stop  offset="0.3769" style="stop-color:#BCBCBC"/>
	<stop  offset="0.547" style="stop-color:#929292"/>
	<stop  offset="0.7313" style="stop-color:#5C5C5C"/>
	<stop  offset="0.9244" style="stop-color:#1B1B1B"/>
	<stop  offset="1" style="stop-color:#000000"/>
</linearGradient>
<path class="st0" d="M100.9,66.5l-0.8-46.7l-7.8,13.3c-6.6-3.9-16.6-6.5-28.3-6.5c-11.6,0-21.7,2.7-28.3,6.5l-7.6-13.3l-0.8,44.9
	l-0.8,35.8l0,0v0.1c-0.1,2.4,1.6,5.1,3.7,6.1l15.5,7.7c2.1,1,5.8,2,8.1,2h20.5c2.4,0,6-0.9,8.1-2l15.5-7.7c2.1-1,3.8-3.8,3.7-6.2
	L100.9,66.5z M89.1,74.4l-18.8,4.1l-1.9-3.7l20.4-10.6L89.1,74.4z M59.7,74.8l-1.8,3.7l-18.8-4.1l0.3-10.3L59.7,74.8z M95.3,101.4
	l-15.5,7.7c-1.3,0.7-4.1,1.3-5.5,1.3H53.9c-1.4,0-4.1-0.7-5.5-1.4l-15.5-7.7c-0.1-0.1-0.3-0.5-0.4-0.7L33,81l25.1,4l6,6l6.1-6.1l0,0
	l25-3.9l0.5,19.5C95.7,100.8,95.4,101.2,95.3,101.4z"/>
</svg>
